<?xml version="1.0" encoding="utf-8"?>

<svg version="1.1" id="Layer_1" xmlns="http://www.w3.org/2000/svg" xmlns:xlink="http://www.w3.org/1999/xlink" x="0px" y="0px"
	 viewBox="0 0 4667.2 796" style="enable-background:new 0 0 4667.2 796;" xml:space="preserve">
<style type="text/css">
	.st0{fill:#FFC639;}
</style>
<g>
	<polygon class="st0" points="422,607 161,796 234,499 0,302 302,282 422,0 542,282 844,302 609,499 683,796 	"/>
</g>
<g>
	<polygon class="st0" points="1377.8,607 1116.8,796 1189.8,499 955.8,302 1257.8,282 1377.8,0 1497.8,282 1799.8,302 1564.8,499 
		1638.8,796 	"/>
</g>
<g>
	<polygon class="st0" points="2333.6,607 2072.6,796 2145.6,499 1911.6,302 2213.6,282 2333.6,0 2453.6,282 2755.6,302 2520.6,499 
		2594.6,796 	"/>
</g>
<g>
	<polygon class="st0" points="3289.4,607 3028.4,796 3101.4,499 2867.4,302 3169.4,282 3289.4,0 3409.4,282 3711.4,302 3476.4,499 
		3550.4,796 	"/>
</g>
<g>
	<polygon class="st0" points="4245.2,607 3984.2,796 4057.2,499 3823.2,302 4125.2,282 4245.2,0 4365.2,282 4667.2,302 4432.2,499 
		4506.2,796 	"/>
</g>
</svg>
