<?xml version="1.0" encoding="utf-8"?>
<!-- Generator: Adobe Illustrator 23.0.1, SVG Export Plug-In . SVG Version: 6.00 Build 0)  -->
<svg version="1.1" id="Layer_1" xmlns="http://www.w3.org/2000/svg" xmlns:xlink="http://www.w3.org/1999/xlink" x="0px" y="0px"
	 viewBox="0 0 190 65" style="enable-background:new 0 0 190 65;" xml:space="preserve">
<style type="text/css">
	.st0{fill:#361B3D;}
	.st1{clip-path:url(#SVGID_2_);fill:#361B3D;}
	.st2{clip-path:url(#SVGID_4_);fill:#361B3D;}
	.st3{clip-path:url(#SVGID_6_);fill:#361B3D;}
	.st4{clip-path:url(#SVGID_8_);fill:#361B3D;}
	.st5{clip-path:url(#SVGID_10_);fill:#361B3D;}
	.st6{clip-path:url(#SVGID_12_);fill:#361B3D;}
</style>
<g>
	<path id="a" class="st0" d="M104,47.6c-1.2-0.5-2.2-1.2-3-2.1c-0.8-0.9-1.5-1.9-1.9-3.1c-0.4-1.2-0.7-2.5-0.7-3.9
		c0-1.4,0.2-2.7,0.7-3.9c0.4-1.2,1.1-2.3,1.9-3.1c0.8-0.9,1.9-1.6,3-2.1c1.2-0.5,2.5-0.8,4-0.8c1.5,0,2.8,0.3,4,0.8
		c1.2,0.5,2.2,1.2,3,2.1c0.8,0.9,1.5,1.9,1.9,3.1c0.4,1.2,0.7,2.5,0.7,3.9c0,1.4-0.2,2.7-0.7,3.9c-0.4,1.2-1.1,2.3-1.9,3.1
		c-0.8,0.9-1.8,1.6-3,2.1c-1.2,0.5-2.5,0.8-4,0.8C106.6,48.4,105.2,48.1,104,47.6 M102.3,25.3c-1.8,0.7-3.3,1.7-4.5,3
		c-1.2,1.3-2.2,2.8-2.9,4.5c-0.7,1.7-1.1,3.6-1.1,5.7c0,2.1,0.4,4,1.1,5.7c0.7,1.7,1.7,3.2,2.9,4.5c1.2,1.3,2.8,2.3,4.5,3
		c1.7,0.7,3.7,1.1,5.7,1.1c2,0,4-0.4,5.7-1.1c1.4-0.6,2.8-1.4,3.9-2.4v0.6c0,1.3,1,2.3,2.3,2.3c1.3,0,2.3-1,2.3-2.3l0-10.9l0-0.2
		l0-0.3c0-2.1-0.4-4-1.1-5.7c-0.7-1.7-1.7-3.3-3-4.5c-1.3-1.3-2.8-2.3-4.5-3c-1.7-0.7-3.6-1.1-5.7-1.1C106,24.2,104,24.6,102.3,25.3
		"/>
</g>
<g>
	<defs>
		<path id="SVGID_1_" d="M104,47.6c-1.2-0.5-2.2-1.2-3-2.1c-0.8-0.9-1.5-1.9-1.9-3.1c-0.4-1.2-0.7-2.5-0.7-3.9
			c0-1.4,0.2-2.7,0.7-3.9c0.4-1.2,1.1-2.3,1.9-3.1c0.8-0.9,1.9-1.6,3-2.1c1.2-0.5,2.5-0.8,4-0.8c1.5,0,2.8,0.3,4,0.8
			c1.2,0.5,2.2,1.2,3,2.1c0.8,0.9,1.5,1.9,1.9,3.1c0.4,1.2,0.7,2.5,0.7,3.9c0,1.4-0.2,2.7-0.7,3.9c-0.4,1.2-1.1,2.3-1.9,3.1
			c-0.8,0.9-1.8,1.6-3,2.1c-1.2,0.5-2.5,0.8-4,0.8C106.6,48.4,105.2,48.1,104,47.6 M102.3,25.3c-1.8,0.7-3.3,1.7-4.5,3
			c-1.2,1.3-2.2,2.8-2.9,4.5c-0.7,1.7-1.1,3.6-1.1,5.7c0,2.1,0.4,4,1.1,5.7c0.7,1.7,1.7,3.2,2.9,4.5c1.2,1.3,2.8,2.3,4.5,3
			c1.7,0.7,3.7,1.1,5.7,1.1c2,0,4-0.4,5.7-1.1c1.4-0.6,2.8-1.4,3.9-2.4v0.6c0,1.3,1,2.3,2.3,2.3c1.3,0,2.3-1,2.3-2.3l0-10.9l0-0.2
			l0-0.3c0-2.1-0.4-4-1.1-5.7c-0.7-1.7-1.7-3.3-3-4.5c-1.3-1.3-2.8-2.3-4.5-3c-1.7-0.7-3.6-1.1-5.7-1.1
			C106,24.2,104,24.6,102.3,25.3"/>
	</defs>
	<use xlink:href="#SVGID_1_"  style="overflow:visible;fill:#361B3D;"/>
	<clipPath id="SVGID_2_">
		<use xlink:href="#SVGID_1_"  style="overflow:visible;"/>
	</clipPath>
	<path class="st1" d="M93.8,24.2h28.5v28.5H93.8V24.2z"/>
</g>
<g>
	<path id="c" class="st0" d="M34.7,25.5c-1.7,0.7-3.3,1.7-4.5,3c-1.2,1.3-2.2,2.8-2.9,4.5c-0.7,1.7-1,3.6-1,5.7c0,2,0.4,3.9,1,5.7
		c0.7,1.7,1.7,3.2,2.9,4.5c1.2,1.3,2.8,2.3,4.5,3c1.7,0.7,3.6,1,5.7,1c1.9,0,3.8-0.4,5.4-1.1c1.1-0.5,2.2-1.2,3.2-2.1
		c0.5-0.4,0.8-1.1,0.7-1.7c0-0.7-0.3-1.3-0.8-1.7l-0.4,0.5l0.4-0.5c-0.9-0.7-2.2-0.7-3,0.1c-0.6,0.6-1.2,1-1.9,1.4
		c-1.1,0.6-2.3,0.9-3.5,0.9c-1.5,0-2.8-0.3-4-0.8c-1.2-0.5-2.2-1.2-3-2.1c-0.8-0.9-1.5-1.9-1.9-3.1c-0.4-1.2-0.7-2.5-0.7-3.9
		c0-1.4,0.2-2.7,0.7-3.9c0.4-1.2,1.1-2.2,1.9-3.1c0.8-0.9,1.8-1.6,3-2.1c1.2-0.5,2.5-0.8,4-0.8c1.2,0,2.4,0.3,3.4,0.8
		c0.7,0.4,1.4,0.9,2.1,1.5c0.8,0.8,2.1,0.8,2.9,0.2c0.6-0.4,0.9-1.1,0.9-1.8c0-0.7-0.3-1.4-0.8-1.8c-0.9-0.8-1.9-1.4-3-2
		c-1.7-0.8-3.6-1.2-5.5-1.2C38.4,24.4,36.4,24.8,34.7,25.5"/>
</g>
<g>
	<defs>
		<path id="SVGID_3_" d="M34.7,25.5c-1.7,0.7-3.3,1.7-4.5,3c-1.2,1.3-2.2,2.8-2.9,4.5c-0.7,1.7-1,3.6-1,5.7c0,2,0.4,3.9,1,5.7
			c0.7,1.7,1.7,3.2,2.9,4.5c1.2,1.3,2.8,2.3,4.5,3c1.7,0.7,3.6,1,5.7,1c1.9,0,3.8-0.4,5.4-1.1c1.1-0.5,2.2-1.2,3.2-2.1
			c0.5-0.4,0.8-1.1,0.7-1.7c0-0.7-0.3-1.3-0.8-1.7l-0.4,0.5l0.4-0.5c-0.9-0.7-2.2-0.7-3,0.1c-0.6,0.6-1.2,1-1.9,1.4
			c-1.1,0.6-2.3,0.9-3.5,0.9c-1.5,0-2.8-0.3-4-0.8c-1.2-0.5-2.2-1.2-3-2.1c-0.8-0.9-1.5-1.9-1.9-3.1c-0.4-1.2-0.7-2.5-0.7-3.9
			c0-1.4,0.2-2.7,0.7-3.9c0.4-1.2,1.1-2.2,1.9-3.1c0.8-0.9,1.8-1.6,3-2.1c1.2-0.5,2.5-0.8,4-0.8c1.2,0,2.4,0.3,3.4,0.8
			c0.7,0.4,1.4,0.9,2.1,1.5c0.8,0.8,2.1,0.8,2.9,0.2c0.6-0.4,0.9-1.1,0.9-1.8c0-0.7-0.3-1.4-0.8-1.8c-0.9-0.8-1.9-1.4-3-2
			c-1.7-0.8-3.6-1.2-5.5-1.2C38.4,24.4,36.4,24.8,34.7,25.5"/>
	</defs>
	<use xlink:href="#SVGID_3_"  style="overflow:visible;fill:#361B3D;"/>
	<clipPath id="SVGID_4_">
		<use xlink:href="#SVGID_3_"  style="overflow:visible;"/>
	</clipPath>
	<path class="st2" d="M26.2,24.4h23.5v28.3H26.2L26.2,24.4z"/>
</g>
<g>
	<path id="e" class="st0" d="M52.4,38.6c0,1.6,1.3,2.9,2.9,2.9c1.6,0,2.9-1.3,2.9-2.9c0-1.6-1.3-2.9-2.9-2.9
		C53.7,35.7,52.4,37,52.4,38.6"/>
</g>
<g>
	<defs>
		<path id="SVGID_5_" d="M52.4,38.6c0,1.6,1.3,2.9,2.9,2.9c1.6,0,2.9-1.3,2.9-2.9c0-1.6-1.3-2.9-2.9-2.9
			C53.7,35.7,52.4,37,52.4,38.6"/>
	</defs>
	<use xlink:href="#SVGID_5_"  style="overflow:visible;fill:#361B3D;"/>
	<clipPath id="SVGID_6_">
		<use xlink:href="#SVGID_5_"  style="overflow:visible;"/>
	</clipPath>
	<path class="st3" d="M52.4,35.7h5.8v5.8h-5.8V35.7z"/>
</g>
<g>
	<path id="g" class="st0" d="M128.1,11.5c-1.2,0-2.2,1-2.2,2.2v25.7l0,0.3c0,2.2-0.1,8,5.3,12.6c0.4,0.3,0.9,0.5,1.4,0.5
		c0.5,0,1.1-0.2,1.5-0.6l0.1-0.1c0.4-0.4,0.7-1,0.7-1.6c0-0.6-0.3-1.2-0.7-1.6c-3.3-2.8-3.4-6.3-3.5-8.5l0-10.3
		c0-0.5,0.4-0.9,0.9-0.9h4.4c1.2,0,2.2-1,2.2-2.2c0-1.2-1-2.2-2.2-2.2h-4.4c-0.5,0-0.9-0.4-0.9-0.9V13.7c0-1.2-1-2.2-2.2-2.2
		L128.1,11.5L128.1,11.5z"/>
</g>
<g>
	<defs>
		<path id="SVGID_7_" d="M128.1,11.5c-1.2,0-2.2,1-2.2,2.2v25.7l0,0.3c0,2.2-0.1,8,5.3,12.6c0.4,0.3,0.9,0.5,1.4,0.5
			c0.5,0,1.1-0.2,1.5-0.6l0.1-0.1c0.4-0.4,0.7-1,0.7-1.6c0-0.6-0.3-1.2-0.7-1.6c-3.3-2.8-3.4-6.3-3.5-8.5l0-10.3
			c0-0.5,0.4-0.9,0.9-0.9h4.4c1.2,0,2.2-1,2.2-2.2c0-1.2-1-2.2-2.2-2.2h-4.4c-0.5,0-0.9-0.4-0.9-0.9V13.7c0-1.2-1-2.2-2.2-2.2
			L128.1,11.5L128.1,11.5z"/>
	</defs>
	<use xlink:href="#SVGID_7_"  style="overflow:visible;fill:#361B3D;"/>
	<clipPath id="SVGID_8_">
		<use xlink:href="#SVGID_7_"  style="overflow:visible;"/>
	</clipPath>
	<path class="st4" d="M125.9,11.5H138v41.3h-12.1V11.5z"/>
</g>
<g>
	<path id="i" class="st0" d="M142.3,36.3c0-0.1,0.1-0.6,0.4-1.7c0.3-0.9,0.8-1.7,1.4-2.6c0.7-0.9,1.6-1.7,2.7-2.4
		c1.1-0.7,2.5-1,4.2-1c1.1,0,2.2,0.2,3.2,0.6c1,0.4,1.9,1,2.7,1.7c0.7,0.7,1.3,1.5,1.8,2.5c0.4,0.9,0.6,1.9,0.6,3h1.3H142.3z
		 M145.7,25.3c-1.6,0.7-3.1,1.7-4.3,3c-1.2,1.3-2.2,2.8-2.8,4.5c-0.7,1.7-1,3.6-1,5.6c0,2.1,0.3,4,1,5.7c0.6,1.7,1.6,3.3,2.8,4.5
		c1.2,1.3,2.7,2.3,4.4,3c1.7,0.7,3.6,1.1,5.6,1.1c1.7,0,3.3-0.2,4.9-0.7c0.6-0.2,1.1-0.6,1.4-1.2c0.3-0.6,0.3-1.3,0-1.8l0-0.1
		c-0.5-1.1-1.7-1.6-2.8-1.2c-1.1,0.4-2.2,0.6-3.4,0.6c-1.8,0-3.4-0.3-4.5-1c-1.2-0.7-2.1-1.5-2.8-2.5c-0.7-1-1.2-2-1.4-3
		c-0.1-0.3-0.1-0.5-0.2-0.8c-0.1-0.3,0-0.6,0.2-0.8c0.2-0.2,0.4-0.3,0.7-0.3h18.3c1.2,0,2.2-1,2.2-2.2v-0.8c0-1.6-0.3-3.1-0.8-4.6
		c-0.6-1.5-1.4-2.9-2.5-4.1c-1.1-1.2-2.4-2.2-4-2.9c-1.6-0.7-3.4-1.1-5.5-1.1C149.2,24.2,147.4,24.6,145.7,25.3"/>
</g>
<g>
	<defs>
		<path id="SVGID_9_" d="M142.3,36.3c0-0.1,0.1-0.6,0.4-1.7c0.3-0.9,0.8-1.7,1.4-2.6c0.7-0.9,1.6-1.7,2.7-2.4c1.1-0.7,2.5-1,4.2-1
			c1.1,0,2.2,0.2,3.2,0.6c1,0.4,1.9,1,2.7,1.7c0.7,0.7,1.3,1.5,1.8,2.5c0.4,0.9,0.6,1.9,0.6,3h1.3H142.3z M145.7,25.3
			c-1.6,0.7-3.1,1.7-4.3,3c-1.2,1.3-2.2,2.8-2.8,4.5c-0.7,1.7-1,3.6-1,5.6c0,2.1,0.3,4,1,5.7c0.6,1.7,1.6,3.3,2.8,4.5
			c1.2,1.3,2.7,2.3,4.4,3c1.7,0.7,3.6,1.1,5.6,1.1c1.7,0,3.3-0.2,4.9-0.7c0.6-0.2,1.1-0.6,1.4-1.2c0.3-0.6,0.3-1.3,0-1.8l0-0.1
			c-0.5-1.1-1.7-1.6-2.8-1.2c-1.1,0.4-2.2,0.6-3.4,0.6c-1.8,0-3.4-0.3-4.5-1c-1.2-0.7-2.1-1.5-2.8-2.5c-0.7-1-1.2-2-1.4-3
			c-0.1-0.3-0.1-0.5-0.2-0.8c-0.1-0.3,0-0.6,0.2-0.8c0.2-0.2,0.4-0.3,0.7-0.3h18.3c1.2,0,2.2-1,2.2-2.2v-0.8c0-1.6-0.3-3.1-0.8-4.6
			c-0.6-1.5-1.4-2.9-2.5-4.1c-1.1-1.2-2.4-2.2-4-2.9c-1.6-0.7-3.4-1.1-5.5-1.1C149.2,24.2,147.4,24.6,145.7,25.3"/>
	</defs>
	<use xlink:href="#SVGID_9_"  style="overflow:visible;fill:#361B3D;"/>
	<clipPath id="SVGID_10_">
		<use xlink:href="#SVGID_9_"  style="overflow:visible;"/>
	</clipPath>
	<path class="st5" d="M137.6,24.2H164v28.5h-26.4V24.2z"/>
</g>
<g>
	<path id="k" class="st0" d="M72.2,47.6c-1.2-0.5-2.2-1.2-3-2.1c-0.8-0.9-1.5-1.9-1.9-3.1c-0.4-1.2-0.7-2.5-0.7-3.9
		c0-1.4,0.2-2.7,0.7-3.9c0.4-1.2,1.1-2.3,1.9-3.1c0.8-0.9,1.9-1.6,3-2.1c1.2-0.5,2.5-0.8,4-0.8c1.5,0,2.8,0.3,4,0.8
		c1.2,0.5,2.2,1.2,3,2.1c0.8,0.9,1.5,1.9,1.9,3.1c0.4,1.2,0.7,2.5,0.7,3.9c0,1.4-0.2,2.7-0.7,3.9c-0.4,1.2-1.1,2.2-1.9,3.1
		c-0.8,0.9-1.8,1.6-3,2.1c-1.2,0.5-2.5,0.8-4,0.8C74.7,48.4,73.3,48.1,72.2,47.6 M85.7,14.7v13c-1.1-1-2.4-1.8-3.9-2.4
		c-1.7-0.7-3.6-1.1-5.7-1.1c-2,0-4,0.4-5.7,1.1c-1.8,0.7-3.3,1.7-4.5,3c-1.2,1.3-2.2,2.8-2.9,4.5c-0.7,1.7-1.1,3.6-1.1,5.7
		c0,2.1,0.4,4,1.1,5.7c0.7,1.7,1.7,3.3,2.9,4.5c1.3,1.3,2.8,2.3,4.5,3c1.7,0.7,3.7,1.1,5.7,1.1c2.1,0,4-0.4,5.7-1.1
		c1.7-0.7,3.2-1.7,4.5-3c1.3-1.3,2.3-2.8,3-4.5c0.7-1.7,1.1-3.6,1.1-5.7l0-0.3l0-0.2l0-23.3v0c0-1.3-1-2.3-2.3-2.3
		C86.8,12.3,85.7,13.4,85.7,14.7"/>
</g>
<g>
	<defs>
		<path id="SVGID_11_" d="M72.2,47.6c-1.2-0.5-2.2-1.2-3-2.1c-0.8-0.9-1.5-1.9-1.9-3.1c-0.4-1.2-0.7-2.5-0.7-3.9
			c0-1.4,0.2-2.7,0.7-3.9c0.4-1.2,1.1-2.3,1.9-3.1c0.8-0.9,1.9-1.6,3-2.1c1.2-0.5,2.5-0.8,4-0.8c1.5,0,2.8,0.3,4,0.8
			c1.2,0.5,2.2,1.2,3,2.1c0.8,0.9,1.5,1.9,1.9,3.1c0.4,1.2,0.7,2.5,0.7,3.9c0,1.4-0.2,2.7-0.7,3.9c-0.4,1.2-1.1,2.2-1.9,3.1
			c-0.8,0.9-1.8,1.6-3,2.1c-1.2,0.5-2.5,0.8-4,0.8C74.7,48.4,73.3,48.1,72.2,47.6 M85.7,14.7v13c-1.1-1-2.4-1.8-3.9-2.4
			c-1.7-0.7-3.6-1.1-5.7-1.1c-2,0-4,0.4-5.7,1.1c-1.8,0.7-3.3,1.7-4.5,3c-1.2,1.3-2.2,2.8-2.9,4.5c-0.7,1.7-1.1,3.6-1.1,5.7
			c0,2.1,0.4,4,1.1,5.7c0.7,1.7,1.7,3.3,2.9,4.5c1.3,1.3,2.8,2.3,4.5,3c1.7,0.7,3.7,1.1,5.7,1.1c2.1,0,4-0.4,5.7-1.1
			c1.7-0.7,3.2-1.7,4.5-3c1.3-1.3,2.3-2.8,3-4.5c0.7-1.7,1.1-3.6,1.1-5.7l0-0.3l0-0.2l0-23.3v0c0-1.3-1-2.3-2.3-2.3
			C86.8,12.3,85.7,13.4,85.7,14.7"/>
	</defs>
	<use xlink:href="#SVGID_11_"  style="overflow:visible;fill:#361B3D;"/>
	<clipPath id="SVGID_12_">
		<use xlink:href="#SVGID_11_"  style="overflow:visible;"/>
	</clipPath>
	<path class="st6" d="M61.9,12.3h28.5v40.4H61.9V12.3z"/>
</g>
</svg>
