<?xml version="1.0" encoding="utf-8"?>

<svg version="1.1" id="Layer_1" xmlns="http://www.w3.org/2000/svg" xmlns:xlink="http://www.w3.org/1999/xlink" x="0px" y="0px"
	 viewBox="0 0 73.2 52" style="enable-background:new 0 0 73.2 52;" xml:space="preserve">
<g transform="translate(0,-952.36218)">
	<path d="M61.5,956.3c-1.6,0-3,0.7-4.1,1.8c-9.4,9.4-18.7,18.7-28.1,28.1l-13.8-11.5c-2.5-2.1-6.3-1.8-8.5,0.8
		c-2.1,2.5-1.8,6.3,0.8,8.5l18,15c2.4,2,5.9,1.8,8.1-0.4c10.7-10.7,21.3-21.3,32-32c2.4-2.3,2.4-6.1,0.1-8.5
		C64.8,956.9,63.1,956.3,61.5,956.3L61.5,956.3z"/>
</g>
</svg>
