<?xml version="1.0" encoding="utf-8"?>

<svg version="1.1" id="Layer_1" xmlns="http://www.w3.org/2000/svg" xmlns:xlink="http://www.w3.org/1999/xlink" x="0px" y="0px"
	 viewBox="0 0 45 21.7" style="enable-background:new 0 0 45 21.7;" xml:space="preserve">
<style type="text/css">
	.st0{fill:#DDC29C;}
</style>
<g>
	<polygon class="st0" points="22.5,14.5 16.2,19.1 17.9,12 12.3,7.2 19.6,6.8 22.5,0 25.3,6.8 32.6,7.2 26.9,12 28.7,19.1 	"/>
</g>
<g>
	<polygon class="st0" points="37.7,18.4 33.2,21.7 34.4,16.5 30.4,13.1 35.6,12.8 37.7,7.9 39.8,12.8 45,13.1 41,16.5 42.2,21.7 	
		"/>
</g>
<g>
	<polygon class="st0" points="7.3,18.4 2.8,21.7 4.1,16.5 0,13.1 5.2,12.8 7.3,7.9 9.4,12.8 14.7,13.1 10.6,16.5 11.9,21.7 	"/>
</g>
</svg>
